<?xml version="1.0" encoding="UTF-8" standalone="no"?>
<!-- Created with Inkscape (http://www.inkscape.org/) -->

<svg
   xmlns:dc="http://purl.org/dc/elements/1.1/"
   xmlns:cc="http://creativecommons.org/ns#"
   xmlns:rdf="http://www.w3.org/1999/02/22-rdf-syntax-ns#"
   xmlns:svg="http://www.w3.org/2000/svg"
   xmlns="http://www.w3.org/2000/svg"
   xmlns:xlink="http://www.w3.org/1999/xlink"
   xmlns:sodipodi="http://sodipodi.sourceforge.net/DTD/sodipodi-0.dtd"
   xmlns:inkscape="http://www.inkscape.org/namespaces/inkscape"
   width="420.85315"
   height="399.06277"
   id="svg2"
   sodipodi:version="0.32"
   inkscape:version="0.48.0 r9654"
   version="1.0"
   sodipodi:docname="no-cover.svg"
   inkscape:output_extension="org.inkscape.output.svg.inkscape"
   style="enable-background:new">
  <defs
     id="defs4">
    <linearGradient
       id="linearGradient4803">
      <stop
         style="stop-color:#ffffff;stop-opacity:0.09027778;"
         offset="0"
         id="stop4805" />
      <stop
         style="stop-color:#ffffff;stop-opacity:0.41666666;"
         offset="1"
         id="stop4807" />
    </linearGradient>
    <linearGradient
       id="linearGradient3314">
      <stop
         style="stop-color:#ffffff;stop-opacity:0.4861111;"
         offset="0"
         id="stop3316" />
      <stop
         style="stop-color:#000000;stop-opacity:0;"
         offset="1"
         id="stop3318" />
    </linearGradient>
    <linearGradient
       id="linearGradient3172">
      <stop
         id="stop3174"
         offset="0"
         style="stop-color:#030303;stop-opacity:1;" />
      <stop
         style="stop-color:#818181;stop-opacity:0.49803922;"
         offset="0.5"
         id="stop3312" />
      <stop
         id="stop3176"
         offset="1"
         style="stop-color:#ffffff;stop-opacity:0;" />
    </linearGradient>
    <linearGradient
       id="linearGradient3161">
      <stop
         style="stop-color:#ffffff;stop-opacity:0.79020977;"
         offset="0"
         id="stop3163" />
      <stop
         style="stop-color:#ffffff;stop-opacity:0;"
         offset="1"
         id="stop3165" />
    </linearGradient>
    <inkscape:perspective
       sodipodi:type="inkscape:persp3d"
       inkscape:vp_x="0 : 526.18109 : 1"
       inkscape:vp_y="0 : 1000 : 0"
       inkscape:vp_z="744.09448 : 526.18109 : 1"
       inkscape:persp3d-origin="372.04724 : 350.78739 : 1"
       id="perspective10" />
    <linearGradient
       inkscape:collect="always"
       xlink:href="#linearGradient3314"
       id="linearGradient3320"
       x1="88.845741"
       y1="199.2764"
       x2="405.74677"
       y2="243.94926"
       gradientUnits="userSpaceOnUse" />
    <linearGradient
       inkscape:collect="always"
       xlink:href="#linearGradient4803"
       id="linearGradient4809"
       x1="173.24635"
       y1="71.993538"
       x2="444.72839"
       y2="71.993538"
       gradientUnits="userSpaceOnUse"
       gradientTransform="matrix(0.2927795,-1.9783165,1.8310926,-0.3656481,-101.25164,754.74945)" />
    <linearGradient
       inkscape:collect="always"
       xlink:href="#linearGradient4803"
       id="linearGradient4858"
       x1="9.2569504"
       y1="196.0625"
       x2="335.37503"
       y2="196.0625"
       gradientUnits="userSpaceOnUse"
       spreadMethod="repeat"
       gradientTransform="matrix(1.0640318,0,0,1.0547132,256.6328,324.75161)" />
    <inkscape:perspective
       sodipodi:type="inkscape:persp3d"
       inkscape:vp_x="0 : 375 : 1"
       inkscape:vp_y="0 : 1000 : 0"
       inkscape:vp_z="750 : 375 : 1"
       inkscape:persp3d-origin="375 : 250 : 1"
       id="perspective79" />
    <linearGradient
       gradientTransform="matrix(1.0180906,0,0,1.0157234,247.34918,326.36047)"
       spreadMethod="repeat"
       gradientUnits="userSpaceOnUse"
       y2="197.77133"
       x2="339.03348"
       y1="197.77133"
       x1="6.4375"
       id="linearGradient4858-6"
       xlink:href="#linearGradient4803-7"
       inkscape:collect="always" />
    <linearGradient
       gradientTransform="matrix(0.2927795,-1.9783165,1.8310926,-0.3656481,-101.25164,754.74945)"
       gradientUnits="userSpaceOnUse"
       y2="71.993538"
       x2="444.72839"
       y1="71.993538"
       x1="173.24635"
       id="linearGradient4809-2"
       xlink:href="#linearGradient4803-7"
       inkscape:collect="always" />
    <linearGradient
       gradientUnits="userSpaceOnUse"
       y2="243.94926"
       x2="405.74677"
       y1="199.2764"
       x1="88.845741"
       id="linearGradient3320-9"
       xlink:href="#linearGradient3314-8"
       inkscape:collect="always" />
    <inkscape:perspective
       id="perspective10-8"
       inkscape:persp3d-origin="372.04724 : 350.78739 : 1"
       inkscape:vp_z="744.09448 : 526.18109 : 1"
       inkscape:vp_y="0 : 1000 : 0"
       inkscape:vp_x="0 : 526.18109 : 1"
       sodipodi:type="inkscape:persp3d" />
    <linearGradient
       id="linearGradient3161-2">
      <stop
         id="stop3163-0"
         offset="0"
         style="stop-color:#ffffff;stop-opacity:0.79020977;" />
      <stop
         id="stop3165-6"
         offset="1"
         style="stop-color:#ffffff;stop-opacity:0;" />
    </linearGradient>
    <linearGradient
       id="linearGradient3172-3">
      <stop
         style="stop-color:#030303;stop-opacity:1;"
         offset="0"
         id="stop3174-1" />
      <stop
         id="stop3312-4"
         offset="0.5"
         style="stop-color:#818181;stop-opacity:0.49803922;" />
      <stop
         style="stop-color:#ffffff;stop-opacity:0;"
         offset="1"
         id="stop3176-9" />
    </linearGradient>
    <linearGradient
       id="linearGradient3314-8">
      <stop
         id="stop3316-8"
         offset="0"
         style="stop-color:#ffffff;stop-opacity:0.4861111;" />
      <stop
         id="stop3318-4"
         offset="1"
         style="stop-color:#000000;stop-opacity:0;" />
    </linearGradient>
    <linearGradient
       id="linearGradient4803-7">
      <stop
         id="stop4805-8"
         offset="0"
         style="stop-color:#ffffff;stop-opacity:0.09027778;" />
      <stop
         id="stop4807-6"
         offset="1"
         style="stop-color:#ffffff;stop-opacity:0.41666666;" />
    </linearGradient>
  </defs>
  <sodipodi:namedview
     id="base"
     pagecolor="#ffffff"
     bordercolor="#666666"
     borderopacity="1.0"
     inkscape:pageopacity="0.0"
     inkscape:pageshadow="2"
     inkscape:zoom="0.47008395"
     inkscape:cx="73.79975"
     inkscape:cy="-29.287255"
     inkscape:document-units="px"
     inkscape:current-layer="layer1"
     showgrid="true"
     showguides="false"
     inkscape:window-width="995"
     inkscape:window-height="717"
     inkscape:window-x="601"
     inkscape:window-y="34"
     inkscape:window-maximized="0">
    <inkscape:grid
       type="xygrid"
       id="grid3162"
       visible="true"
       enabled="true" />
  </sodipodi:namedview>
  <metadata
     id="metadata7">
    <rdf:RDF>
      <cc:Work
         rdf:about="">
        <dc:format>image/svg+xml</dc:format>
        <dc:type
           rdf:resource="http://purl.org/dc/dcmitype/StillImage" />
        <dc:title></dc:title>
      </cc:Work>
    </rdf:RDF>
  </metadata>
  <g
     inkscape:groupmode="layer"
     id="layer3"
     inkscape:label="jk"
     style="display:none"
     transform="translate(2.8909607e-6,2.6585388e-6)">
    <rect
       style="fill:#800000;stroke:#000000;stroke-opacity:1"
       id="rect3170"
       width="512.67438"
       height="482.89246"
       x="-47.863792"
       y="-37.029545"
       ry="11.21405" />
  </g>
  <g
     inkscape:groupmode="layer"
     id="layer2"
     inkscape:label="asd"
     transform="translate(-253.48249,-332.47855)"
     style="display:inline">
    <rect
       ry="11.21405"
       y="338.93121"
       x="259.93515"
       height="386.15744"
       width="407.94781"
       id="rect3342"
       style="fill:none;fill-opacity:1;stroke:#000000;stroke-width:12.90532207;stroke-linecap:butt;stroke-linejoin:round;stroke-miterlimit:4;stroke-dasharray:none;stroke-opacity:1" />
    <g
       style="enable-background:new"
       id="g3087"
       transform="translate(250.62989,337.34284)">
      <g
         transform="translate(2.8909607e-6,2.6585388e-6)"
         style="display:inline"
         inkscape:label="jk"
         id="layer3-5">
        <g
           transform="matrix(0.5,0,0,0.5,64.209336,45.719888)"
           id="g2661">
          <path
             style="opacity:0.43000004;fill:#262725;stroke:#262725;stroke-width:0.09375"
             d="m 279,0 8.5,0 c -2.6,1.6 -5.7,0.9 -8.5,1 l 0,-1 z"
             id="path4"
             inkscape:connector-curvature="0" />
          <path
             d="m 287.5,0 26.3,0 c 2.4,1.8 4.7,2.1 7.2,0.8 55.4,4.1 109.9,23.3 154.8,56.4 70.1,49.6 116.3,131.1 123.2,216.7 0.2,3.5 -0.8,7.4 1,10.6 l 0,32.1 c -0.7,3.4 -1.1,7 -1.1,10.5 0,0.4 -0.1,1.4 -0.2,1.8 -1.5,2.4 -1.6,4.8 -0.4,7.2 -6.2,48.1 -23.4,95.1 -51.4,134.8 -29.6,43 -70.6,77.9 -117.7,100.3 -32.1,15.3 -66.8,24.6 -102.2,27.8 -3.5,0.2 -7.3,-0.8 -10.5,1 l -32.1,0 C 281,599.2 277.5,598.9 274,599 212,594 152,568.5 105,528 48.7,480.2 11.3,410.7 2.7,337.3 0.6,329.6 2.6,321 0,313.5 L 0,292.4 C 0.7,289 1.1,285.5 1,282 2.9,249 10.3,216.4 22.9,185.9 46.6,128 89.1,78.2 142.2,45.3 183.3,19.7 230.7,4.4 279,1 c 2.8,-0.1 5.9,0.6 8.5,-1 m -4.1,11.6 C 238.6,14.1 194.5,27.1 155.6,49.6 135.2,61.8 115.3,75.5 98.8,92.8 40.3,148 7.5,229.4 11.4,309.7 c 0.3,2.5 -2.6,9.1 0.6,9.3 2,37.5 12.6,74.3 29,108 13.9,26.5 30.5,52 52.2,72.8 55.7,58 137.2,90.7 217.5,86.8 2.5,-0.3 9.1,2.6 9.3,-0.6 43.6,-2.4 86.5,-15.8 124.4,-37.6 21,-12.5 41.5,-26.7 58.4,-44.6 31.5,-30.1 55.2,-68.1 69.8,-109.1 8.1,-24.4 14.8,-49.8 15.4,-75.7 2.6,-1 0,-6.8 0.7,-9.3 C 591.3,244.3 570.7,178.1 531,126 519.4,109.6 504.6,95.7 489.9,82 433.8,33 357.9,6.5 283.4,11.6 z"
             id="path6"
             style="fill:#585a56;fill-opacity:0.4567308;stroke:#585a56;stroke-width:0.09375"
             inkscape:connector-curvature="0" />
          <path
             style="opacity:0.43000004;fill:#252625;stroke:#252625;stroke-width:0.09375"
             d="m 313.8,0 7,0 0.2,0.8 c -2.5,1.3 -4.8,1 -7.2,-0.8 z"
             id="path8"
             inkscape:connector-curvature="0" />
          <path
             d="M 283.4,11.6 C 357.9,6.5 433.8,33 489.9,82 c 14.7,13.7 29.5,27.6 41.1,44 39.7,52.1 60.3,118.3 57.7,183.7 -0.4,3.1 -0.8,6.2 -0.7,9.3 -0.6,25.9 -7.3,51.3 -15.4,75.7 -14.6,41 -38.3,79 -69.8,109.1 -16.9,17.9 -37.4,32.1 -58.4,44.6 -37.9,21.8 -80.8,35.2 -124.4,37.6 -3.1,-0.1 -6.3,-0.3 -9.3,0.6 C 230.4,590.5 148.9,557.8 93.2,499.8 71.5,479 54.9,453.5 41,427 24.6,393.3 14,356.5 12,319 c 0,-3.1 0.3,-6.3 -0.6,-9.3 C 7.5,229.4 40.3,148 98.8,92.8 c 16.5,-17.3 36.4,-31 56.8,-43.2 38.9,-22.5 83,-35.5 127.8,-38 M 294,230 l 0,1 c -1.7,-0.5 -2.7,-0.1 -3,1 -29.9,3.6 -55.5,30 -58,60 l -1,0 c -0.1,5.3 -0.1,10.7 0,16 l 1,0 c 2.4,30.1 28.1,56.5 58,60 0.3,1.1 1.3,1.4 3,1 l 0,1 c 3.8,0 11.2,0 15,0 l 0,-1 c 0.5,0 1.5,0 2,0 l 0,-1 c 31.1,-3.1 57.1,-30.9 59,-62 3.1,-1.5 -0.2,-8.9 1,-12 l -1,0 c -1.9,-31.1 -27.9,-58.8 -59,-62 -0.5,-0.3 -1.5,-0.8 -2,-1 l 0,-1 c -3.8,0 -11.2,0 -15,0 z"
             id="path10"
             style="fill:#ffffff;fill-opacity:0.36057691;stroke:#ffffff;stroke-width:0.09375"
             inkscape:connector-curvature="0" />
          <path
             style="fill:#dededd;stroke:#dededd;stroke-width:0.09375"
             d="m 294,230 c 3.8,0 11.2,0 15,0 l 0,1 c -5,0 -10,0.1 -15,0 l 0,-1 z"
             id="path12"
             inkscape:connector-curvature="0" />
          <path
             style="fill:#939592;stroke:#939592;stroke-width:0.09375"
             d="m 291,232 c 0.3,-1.1 1.3,-1.5 3,-1 5,0.1 10,0 15,0 0.5,0.2 1.5,0.7 2,1 -6.7,0 -13.3,0 -20,0 z"
             id="path14"
             inkscape:connector-curvature="0" />
          <path
             d="m 233,292 c 2.5,-30 28.1,-56.4 58,-60 6.7,0 13.3,0 20,0 31.1,3.2 57.1,30.9 59,62 0,4 0,8 0,12 -1.9,31.1 -27.9,58.9 -59,62 -6.7,0 -13.3,0 -20,0 -29.9,-3.5 -55.6,-29.9 -58,-60 0,-5.3 0,-10.7 0,-16 m 61.3,-45.5 c -25.3,2.4 -46.5,25.1 -47.3,50.5 -0.7,17.4 6.7,35.6 21.2,45.8 11.1,8.9 26.1,12.9 40.2,10.7 14.4,-2.6 28,-10.5 36.2,-22.9 7.3,-11 11.2,-24.7 8.8,-37.9 -2.8,-27.9 -31.1,-50.6 -59.1,-46.2 z"
             id="path16"
             style="fill:#5b5d59;fill-opacity:0.50961537;stroke:#5b5d59;stroke-width:0.09375"
             inkscape:connector-curvature="0" />
          <path
             d="m 294.3,246.5 c 28,-4.4 56.3,18.3 59.1,46.2 2.4,13.2 -1.5,26.9 -8.8,37.9 -8.2,12.4 -21.8,20.3 -36.2,22.9 -14.1,2.2 -29.1,-1.8 -40.2,-10.7 -14.5,-10.2 -21.9,-28.4 -21.2,-45.8 0.8,-25.4 22,-48.1 47.3,-50.5 m -2.4,16.5 0.2,0.9 c -12.7,2.2 -24.4,12.6 -27.2,25.2 l -0.8,-0.1 c -1.2,8 -2.5,18.5 1.8,25 2.3,8.4 9.5,15.3 17.1,19.1 2.9,2.4 7.9,3.7 12,3.9 l 0,1 c 2.8,0 8.3,0 11,0 l 0,-1 c 15.6,-1.4 29.5,-15.5 31,-31 l 1,0 c 0,-2.8 0,-8.3 0,-11 l -1,0 c -0.2,-6.5 -3.7,-12.5 -7.1,-17.9 l -0.7,0 c -1.6,-2.4 -3.9,-4.6 -6.3,-6.3 0.2,-1.4 -1.8,-1.5 -2.6,-2.2 -4,-1.8 -7.9,-4.4 -12.4,-4.7 l 0.2,-0.9 c -5.4,-0.1 -10.8,-0.1 -16.2,0 z"
             id="path18"
             style="fill:#fdfdfd;fill-opacity:0.55288463;stroke:#fdfdfd;stroke-width:0.09375"
             inkscape:connector-curvature="0" />
          <path
             style="fill:#cbcaca;stroke:#cbcaca;stroke-width:0.09375"
             d="m 291.9,263 c 5.4,-0.1 10.8,-0.1 16.2,0 l -0.2,0.9 c -0.5,0.2 -1.6,0.7 -2.1,0.9 -3.6,0.1 -7.1,0.4 -10.6,-0.1 -1,-0.3 -2.1,-0.6 -3.1,-0.8 l -0.2,-0.9 z"
             id="path20"
             inkscape:connector-curvature="0" />
          <path
             style="fill:#b7b6b6;stroke:#b7b6b6;stroke-width:0.09375"
             d="m 264.9,289.1 c 2.8,-12.6 14.5,-23 27.2,-25.2 1,0.2 2.1,0.5 3.1,0.8 -13.5,2.4 -25.2,12.3 -29.2,25.5 -0.3,-0.3 -0.8,-0.8 -1.1,-1.1 z"
             id="path22"
             inkscape:connector-curvature="0" />
          <path
             style="fill:#bab9b9;stroke:#bab9b9;stroke-width:0.09375"
             d="m 305.8,264.8 c 0.5,-0.2 1.6,-0.7 2.1,-0.9 4.5,0.3 8.4,2.9 12.4,4.7 0.8,0.7 2.8,0.8 2.6,2.2 -0.2,0.3 -0.7,0.8 -0.9,1 -5.1,-3 -10.3,-5.8 -16.2,-7 z"
             id="path24"
             inkscape:connector-curvature="0" />
          <path
             style="fill:#f4f5f7;stroke:#f4f5f7;stroke-width:0.09375"
             d="m 266,290.2 c 4,-13.2 15.7,-23.1 29.2,-25.5 3.5,0.5 7,0.2 10.6,0.1 5.9,1.2 11.1,4 16.2,7 2.2,1.9 4.3,3.9 6.1,6.2 11.5,14 10.1,36.4 -3.8,48.3 -10.3,10.4 -27.2,12.4 -40.2,5.9 -8.2,-3.9 -13.5,-11.3 -17.3,-19.3 -2.5,-7.3 -2,-15.2 -0.8,-22.7 m 28.3,-22.7 c -13.4,2 -24.7,13.5 -26.8,26.8 -2.7,12.5 3.3,25.6 13.5,32.7 8.8,6.4 20.9,7.7 31,4 10.2,-4.4 18.5,-13.6 20.4,-24.7 5.4,-21.6 -16.4,-43.7 -38.1,-38.8 z"
             id="path26"
             inkscape:connector-curvature="0" />
          <path
             style="opacity:0.95999995;fill:#3966a1;stroke:#3966a1;stroke-width:0.09375"
             d="m 294.3,267.5 c 21.7,-4.9 43.5,17.2 38.1,38.8 -1.9,11.1 -10.2,20.3 -20.4,24.7 -10.1,3.7 -22.2,2.4 -31,-4 -10.2,-7.1 -16.2,-20.2 -13.5,-32.7 2.1,-13.3 13.4,-24.8 26.8,-26.8 M 272,294 l -1,0 c 0,2.8 0,8.2 0,11 l 1,0 c 2.2,11.5 11.8,20.7 23.3,22.8 l -0.3,1 c 2.5,0 7.5,0 10,0 l -0.3,-1 c 11.5,-2 21.1,-11.4 23.3,-22.8 l 1,0 c 0,-2.8 0,-8.2 0,-11 l -1,0 c -1.8,-8.7 -7.7,-16.6 -16,-20 -15.7,-8.3 -37.1,2.6 -40,20 z"
             id="path28"
             inkscape:connector-curvature="0" />
          <path
             style="fill:#a5a3a3;stroke:#a5a3a3;stroke-width:0.09375"
             d="m 322,271.8 c 0.2,-0.2 0.7,-0.7 0.9,-1 2.4,1.7 4.7,3.9 6.3,6.3 -0.3,0.2 -0.8,0.7 -1.1,0.9 -1.8,-2.3 -3.9,-4.3 -6.1,-6.2 z"
             id="path30"
             inkscape:connector-curvature="0" />
          <path
             style="opacity:0.51999996;fill:#2d2f2c;stroke:#2d2f2c;stroke-width:0.09375"
             d="m 599,273.9 1,0.2 0,10.4 c -1.8,-3.2 -0.8,-7.1 -1,-10.6 z"
             id="path32"
             inkscape:connector-curvature="0" />
          <path
             style="fill:#bdbbbb;stroke:#bdbbbb;stroke-width:0.09375"
             d="m 329.2,277.1 0.7,0 c 3.4,5.4 6.9,11.4 7.1,17.9 0,3.6 0,7.3 0,11 -1.5,15.5 -15.4,29.6 -31,31 -3.7,0 -7.3,0 -11,0 -4.1,-0.2 -9.1,-1.5 -12,-3.9 0.3,-0.2 0.8,-0.7 1.1,-0.9 13,6.5 29.9,4.5 40.2,-5.9 13.9,-11.9 15.3,-34.3 3.8,-48.3 0.3,-0.2 0.8,-0.7 1.1,-0.9 z"
             id="path34"
             inkscape:connector-curvature="0" />
          <path
             style="opacity:0.52999998;fill:#2e2f2d;stroke:#2e2f2d;stroke-width:0.09375"
             d="m 0,282 1,0 c 0.1,3.5 -0.3,7 -1,10.4 L 0,282 z"
             id="path36"
             inkscape:connector-curvature="0" />
          <path
             style="fill:#c6c5c5;stroke:#c6c5c5;stroke-width:0.09375"
             d="m 264.1,289 0.8,0.1 c 0.3,0.3 0.8,0.8 1.1,1.1 -1.2,7.5 -1.7,15.4 0.8,22.7 -0.2,0.3 -0.7,0.8 -0.9,1.1 -4.3,-6.5 -3,-17 -1.8,-25 z"
             id="path38"
             inkscape:connector-curvature="0" />
          <path
             style="fill:#aaacaa;stroke:#aaacaa;stroke-width:0.09375"
             d="m 232,292 1,0 c 0,5.3 0,10.7 0,16 l -1,0 c -0.1,-5.3 -0.1,-10.7 0,-16 z"
             id="path40"
             inkscape:connector-curvature="0" />
          <path
             style="opacity:0.58999999;fill:#1f3c61;stroke:#1f3c61;stroke-width:0.09375"
             d="m 271,294 1,0 c 0,3.7 0,7.3 0,11 l -1,0 c 0,-2.8 0,-8.2 0,-11 z"
             id="path42"
             inkscape:connector-curvature="0" />
          <path
             style="opacity:0.58999999;fill:#1f3c61;stroke:#1f3c61;stroke-width:0.09375"
             d="m 328,294 1,0 c 0,2.8 0,8.2 0,11 l -1,0 c 0,-3.7 0,-7.4 0,-11 z"
             id="path44"
             inkscape:connector-curvature="0" />
          <path
             style="fill:#c4c5c3;stroke:#c4c5c3;stroke-width:0.09375"
             d="m 370,294 1,0 c -1.2,3.1 2.1,10.5 -1,12 0,-4 0,-8 0,-12 z"
             id="path46"
             inkscape:connector-curvature="0" />
          <path
             style="fill:#dbdada;stroke:#dbdada;stroke-width:0.09375"
             d="m 337,295 1,0 c 0,2.7 0,8.2 0,11 l -1,0 c 0,-3.7 0,-7.4 0,-11 z"
             id="path48"
             inkscape:connector-curvature="0" />
          <path
             style="fill:#b6b7b5;stroke:#b6b7b5;stroke-width:0.09375"
             d="m 11.4,309.7 c 0.9,3 0.6,6.2 0.6,9.3 -3.2,-0.2 -0.3,-6.8 -0.6,-9.3 z"
             id="path50"
             inkscape:connector-curvature="0" />
          <path
             style="fill:#b6b7b5;stroke:#b6b7b5;stroke-width:0.09375"
             d="m 588,319 c -0.1,-3.1 0.3,-6.2 0.7,-9.3 -0.7,2.5 1.9,8.3 -0.7,9.3 z"
             id="path52"
             inkscape:connector-curvature="0" />
          <path
             style="fill:#b2b1b1;stroke:#b2b1b1;stroke-width:0.09375"
             d="m 265.9,314 c 0.2,-0.3 0.7,-0.8 0.9,-1.1 3.8,8 9.1,15.4 17.3,19.3 -0.3,0.2 -0.8,0.7 -1.1,0.9 -7.6,-3.8 -14.8,-10.7 -17.1,-19.1 z"
             id="path54"
             inkscape:connector-curvature="0" />
          <path
             style="opacity:0.48999999;fill:#2b2c2a;stroke:#2b2c2a;stroke-width:0.09375"
             d="m 598.9,327.1 c 0,-3.5 0.4,-7.1 1.1,-10.5 l 0,10.3 -1.1,0.2 z"
             id="path56"
             inkscape:connector-curvature="0" />
          <path
             style="opacity:0.83999999;fill:#2b5489;stroke:#2b5489;stroke-width:0.09375"
             d="m 295.3,327.8 c 3.1,0.3 6.2,0.1 9.4,0 l 0.3,1 c -2.5,0 -7.5,0 -10,0 l 0.3,-1 z"
             id="path58"
             inkscape:connector-curvature="0" />
          <path
             style="opacity:0.48999999;fill:#2a2b2a;stroke:#2a2b2a;stroke-width:0.09375"
             d="m 598.3,336.1 c -1.2,-2.4 -1.1,-4.8 0.4,-7.2 1.1,2.4 1,4.8 -0.4,7.2 z"
             id="path60"
             inkscape:connector-curvature="0" />
          <path
             style="fill:#dbdada;stroke:#dbdada;stroke-width:0.09375"
             d="m 295,337 c 3.7,0 7.3,0 11,0 l 0,1 c -2.7,0 -8.2,0 -11,0 l 0,-1 z"
             id="path62"
             inkscape:connector-curvature="0" />
          <path
             style="fill:#939592;stroke:#939592;stroke-width:0.09375"
             d="m 291,368 c 6.7,0 13.3,0 20,0 l 0,1 c -0.5,0 -1.5,0 -2,0 -5,0 -10,-0.1 -15,0 -1.7,0.4 -2.7,0.1 -3,-1 z"
             id="path64"
             inkscape:connector-curvature="0" />
          <path
             style="fill:#dededd;stroke:#dededd;stroke-width:0.09375"
             d="m 294,369 c 5,-0.1 10,0 15,0 l 0,1 c -3.8,0 -11.2,0 -15,0 l 0,-1 z"
             id="path66"
             inkscape:connector-curvature="0" />
          <path
             style="fill:#b7b8b6;stroke:#b7b8b6;stroke-width:0.09375"
             d="m 310.7,586.6 c 3,-0.9 6.2,-0.7 9.3,-0.6 -0.2,3.2 -6.8,0.3 -9.3,0.6 z"
             id="path68"
             inkscape:connector-curvature="0" />
          <path
             style="opacity:0.51999996;fill:#2d2f2c;stroke:#2d2f2c;stroke-width:0.09375"
             d="m 274,599 c 3.5,-0.1 7,0.2 10.4,1 l -10.3,0 -0.1,-1 z"
             id="path70"
             inkscape:connector-curvature="0" />
          <path
             style="opacity:0.48999999;fill:#2b2c2a;stroke:#2b2c2a;stroke-width:0.09375"
             d="m 316.5,600 c 3.2,-1.8 7,-0.8 10.5,-1 l 0,1 -10.5,0 z"
             id="path72"
             inkscape:connector-curvature="0" />
        </g>
      </g>
      <g
         style="display:inline"
         transform="translate(-253.48249,-332.47855)"
         inkscape:label="asd"
         id="layer2-0" />
      <g
         style="display:inline"
         transform="translate(-253.48249,-332.47855)"
         id="layer1-4"
         inkscape:label="Capa 1">
        <path
           sodipodi:nodetypes="ccc"
           transform="translate(253.48249,332.47855)"
           id="path3274-8"
           d="M 13.827318,387.36274 18.081877,11.190054 13.827318,387.36274 z"
           style="fill:url(#linearGradient3320-9);fill-opacity:1;fill-rule:evenodd;stroke:none"
           inkscape:connector-curvature="0" />
      </g>
    </g>
  </g>
  <g
     inkscape:label="Capa 1"
     inkscape:groupmode="layer"
     id="layer1"
     transform="translate(-253.48249,-332.47855)"
     style="display:inline">
    <path
       style="fill:url(#linearGradient3320);fill-opacity:1;fill-rule:evenodd;stroke:none;stroke-width:1px;stroke-linecap:butt;stroke-linejoin:miter;stroke-opacity:1"
       d="M 13.827318,387.36274 L 18.081877,11.190054 L 13.827318,387.36274 z"
       id="path3274"
       transform="translate(253.48249,332.47855)"
       sodipodi:nodetypes="ccc" />
  </g>
</svg>
