<?xml version="1.0" encoding="UTF-8" standalone="no"?>
<!-- Created with Inkscape (http://www.inkscape.org/) -->
<svg
   xmlns:dc="http://purl.org/dc/elements/1.1/"
   xmlns:cc="http://creativecommons.org/ns#"
   xmlns:rdf="http://www.w3.org/1999/02/22-rdf-syntax-ns#"
   xmlns:svg="http://www.w3.org/2000/svg"
   xmlns="http://www.w3.org/2000/svg"
   xmlns:xlink="http://www.w3.org/1999/xlink"
   xmlns:sodipodi="http://sodipodi.sourceforge.net/DTD/sodipodi-0.dtd"
   xmlns:inkscape="http://www.inkscape.org/namespaces/inkscape"
   width="420.85315"
   height="399.06277"
   id="svg2"
   sodipodi:version="0.32"
   inkscape:version="0.46"
   version="1.0"
   sodipodi:docname="disc.svg"
   inkscape:output_extension="org.inkscape.output.svg.inkscape"
   style="enable-background:new">
  <defs
     id="defs4">
    <linearGradient
       id="linearGradient4803">
      <stop
         style="stop-color:#ffffff;stop-opacity:0.09027778;"
         offset="0"
         id="stop4805" />
      <stop
         style="stop-color:#ffffff;stop-opacity:0.41666666;"
         offset="1"
         id="stop4807" />
    </linearGradient>
    <linearGradient
       id="linearGradient3314">
      <stop
         style="stop-color:#ffffff;stop-opacity:0.4861111;"
         offset="0"
         id="stop3316" />
      <stop
         style="stop-color:#000000;stop-opacity:0;"
         offset="1"
         id="stop3318" />
    </linearGradient>
    <linearGradient
       id="linearGradient3172">
      <stop
         id="stop3174"
         offset="0"
         style="stop-color:#030303;stop-opacity:1;" />
      <stop
         style="stop-color:#818181;stop-opacity:0.49803922;"
         offset="0.5"
         id="stop3312" />
      <stop
         id="stop3176"
         offset="1"
         style="stop-color:#ffffff;stop-opacity:0;" />
    </linearGradient>
    <linearGradient
       id="linearGradient3161">
      <stop
         style="stop-color:#ffffff;stop-opacity:0.79020977;"
         offset="0"
         id="stop3163" />
      <stop
         style="stop-color:#ffffff;stop-opacity:0;"
         offset="1"
         id="stop3165" />
    </linearGradient>
    <inkscape:perspective
       sodipodi:type="inkscape:persp3d"
       inkscape:vp_x="0 : 526.18109 : 1"
       inkscape:vp_y="0 : 1000 : 0"
       inkscape:vp_z="744.09448 : 526.18109 : 1"
       inkscape:persp3d-origin="372.04724 : 350.78739 : 1"
       id="perspective10" />
    <linearGradient
       inkscape:collect="always"
       xlink:href="#linearGradient3314"
       id="linearGradient3320"
       x1="88.845741"
       y1="199.2764"
       x2="405.74677"
       y2="243.94926"
       gradientUnits="userSpaceOnUse" />
    <linearGradient
       inkscape:collect="always"
       xlink:href="#linearGradient4803"
       id="linearGradient4809"
       x1="173.24635"
       y1="71.993538"
       x2="444.72839"
       y2="71.993538"
       gradientUnits="userSpaceOnUse"
       gradientTransform="matrix(0.2927795,-1.9783165,1.8310926,-0.3656481,-101.25164,754.74945)" />
    <linearGradient
       inkscape:collect="always"
       xlink:href="#linearGradient4803"
       id="linearGradient4858"
       x1="6.4375"
       y1="197.77133"
       x2="339.03348"
       y2="197.77133"
       gradientUnits="userSpaceOnUse"
       spreadMethod="repeat"
       gradientTransform="matrix(1.0180906,0,0,1.0157234,247.34918,326.36047)" />
    <inkscape:perspective
       id="perspective79"
       inkscape:persp3d-origin="375 : 250 : 1"
       inkscape:vp_z="750 : 375 : 1"
       inkscape:vp_y="0 : 1000 : 0"
       inkscape:vp_x="0 : 375 : 1"
       sodipodi:type="inkscape:persp3d" />
  </defs>
  <sodipodi:namedview
     id="base"
     pagecolor="#ffffff"
     bordercolor="#666666"
     borderopacity="1.0"
     inkscape:pageopacity="0.0"
     inkscape:pageshadow="2"
     inkscape:zoom="1.020888"
     inkscape:cx="256.83719"
     inkscape:cy="241.94623"
     inkscape:document-units="px"
     inkscape:current-layer="layer2"
     showgrid="true"
     showguides="false"
     inkscape:window-width="995"
     inkscape:window-height="717"
     inkscape:window-x="1"
     inkscape:window-y="34">
    <inkscape:grid
       type="xygrid"
       id="grid3162"
       visible="true"
       enabled="true" />
  </sodipodi:namedview>
  <metadata
     id="metadata7">
    <rdf:RDF>
      <cc:Work
         rdf:about="">
        <dc:format>image/svg+xml</dc:format>
        <dc:type
           rdf:resource="http://purl.org/dc/dcmitype/StillImage" />
      </cc:Work>
    </rdf:RDF>
  </metadata>
  <g
     inkscape:groupmode="layer"
     id="layer3"
     inkscape:label="jk"
     style="display:inline"
     transform="translate(2.8909607e-6,2.6585388e-6)">
    <g
       id="g2661"
       transform="matrix(0.5,0,0,0.5,64.209336,45.719888)">
      <path
         id="path4"
         d="M 279,0 L 287.5,0 C 284.9,1.6 281.8,0.9 279,1 L 279,0 z"
         style="opacity:0.43000004;fill:#262725;stroke:#262725;stroke-width:0.09375" />
      <path
         style="opacity:1;fill:#585a56;fill-opacity:0.4567308;stroke:#585a56;stroke-width:0.09375"
         id="path6"
         d="M 287.5,0 L 313.8,0 C 316.2,1.8 318.5,2.1 321,0.8 C 376.4,4.9 430.9,24.1 475.8,57.2 C 545.9,106.8 592.1,188.3 599,273.9 C 599.2,277.4 598.2,281.3 600,284.5 L 600,316.6 C 599.3,320 598.9,323.6 598.9,327.1 C 598.9,327.5 598.8,328.5 598.7,328.9 C 597.2,331.3 597.1,333.7 598.3,336.1 C 592.1,384.2 574.9,431.2 546.9,470.9 C 517.3,513.9 476.3,548.8 429.2,571.2 C 397.1,586.5 362.4,595.8 327,599 C 323.5,599.2 319.7,598.2 316.5,600 L 284.4,600 C 281,599.2 277.5,598.9 274,599 C 212,594 152,568.5 105,528 C 48.7,480.2 11.3,410.7 2.7,337.3 C 0.6,329.6 2.6,321 0,313.5 L 0,292.4 C 0.7,289 1.1,285.5 1,282 C 2.9,249 10.3,216.4 22.9,185.9 C 46.6,128 89.1,78.2 142.2,45.3 C 183.3,19.7 230.7,4.4 279,1 C 281.8,0.9 284.9,1.6 287.5,0 M 283.4,11.6 C 238.6,14.1 194.5,27.1 155.6,49.6 C 135.2,61.8 115.3,75.5 98.8,92.8 C 40.3,148 7.5,229.4 11.4,309.7 C 11.7,312.2 8.8,318.8 12,319 C 14,356.5 24.6,393.3 41,427 C 54.9,453.5 71.5,479 93.2,499.8 C 148.9,557.8 230.4,590.5 310.7,586.6 C 313.2,586.3 319.8,589.2 320,586 C 363.6,583.6 406.5,570.2 444.4,548.4 C 465.4,535.9 485.9,521.7 502.8,503.8 C 534.3,473.7 558,435.7 572.6,394.7 C 580.7,370.3 587.4,344.9 588,319 C 590.6,318 588,312.2 588.7,309.7 C 591.3,244.3 570.7,178.1 531,126 C 519.4,109.6 504.6,95.7 489.9,82 C 433.8,33 357.9,6.5 283.4,11.6 z" />
      <path
         id="path8"
         d="M 313.8,0 L 320.8,0 L 321,0.8 C 318.5,2.1 316.2,1.8 313.8,0 z"
         style="opacity:0.43000004;fill:#252625;stroke:#252625;stroke-width:0.09375" />
      <path
         style="opacity:1;fill:#ffffff;fill-opacity:0.36057691;stroke:#ffffff;stroke-width:0.09375"
         id="path10"
         d="M 283.4,11.6 C 357.9,6.5 433.8,33 489.9,82 C 504.6,95.7 519.4,109.6 531,126 C 570.7,178.1 591.3,244.3 588.7,309.7 C 588.3,312.8 587.9,315.9 588,319 C 587.4,344.9 580.7,370.3 572.6,394.7 C 558,435.7 534.3,473.7 502.8,503.8 C 485.9,521.7 465.4,535.9 444.4,548.4 C 406.5,570.2 363.6,583.6 320,586 C 316.9,585.9 313.7,585.7 310.7,586.6 C 230.4,590.5 148.9,557.8 93.2,499.8 C 71.5,479 54.9,453.5 41,427 C 24.6,393.3 14,356.5 12,319 C 12,315.9 12.3,312.7 11.4,309.7 C 7.5,229.4 40.3,148 98.8,92.8 C 115.3,75.5 135.2,61.8 155.6,49.6 C 194.5,27.1 238.6,14.1 283.4,11.6 M 294,230 L 294,231 C 292.3,230.5 291.3,230.9 291,232 C 261.1,235.6 235.5,262 233,292 L 232,292 C 231.9,297.3 231.9,302.7 232,308 L 233,308 C 235.4,338.1 261.1,364.5 291,368 C 291.3,369.1 292.3,369.4 294,369 L 294,370 C 297.8,370 305.2,370 309,370 L 309,369 C 309.5,369 310.5,369 311,369 L 311,368 C 342.1,364.9 368.1,337.1 370,306 C 373.1,304.5 369.8,297.1 371,294 L 370,294 C 368.1,262.9 342.1,235.2 311,232 C 310.5,231.7 309.5,231.2 309,231 L 309,230 C 305.2,230 297.8,230 294,230 z" />
      <path
         id="path12"
         d="M 294,230 C 297.8,230 305.2,230 309,230 L 309,231 C 304,231 299,231.1 294,231 L 294,230 z"
         style="opacity:1;fill:#dededd;stroke:#dededd;stroke-width:0.09375" />
      <path
         id="path14"
         d="M 291,232 C 291.3,230.9 292.3,230.5 294,231 C 299,231.1 304,231 309,231 C 309.5,231.2 310.5,231.7 311,232 C 304.3,232 297.7,232 291,232 z"
         style="opacity:1;fill:#939592;stroke:#939592;stroke-width:0.09375" />
      <path
         style="opacity:1;fill:#5b5d59;fill-opacity:0.50961537;stroke:#5b5d59;stroke-width:0.09375"
         id="path16"
         d="M 233,292 C 235.5,262 261.1,235.6 291,232 C 297.7,232 304.3,232 311,232 C 342.1,235.2 368.1,262.9 370,294 C 370,298 370,302 370,306 C 368.1,337.1 342.1,364.9 311,368 C 304.3,368 297.7,368 291,368 C 261.1,364.5 235.4,338.1 233,308 C 233,302.7 233,297.3 233,292 M 294.3,246.5 C 269,248.9 247.8,271.6 247,297 C 246.3,314.4 253.7,332.6 268.2,342.8 C 279.3,351.7 294.3,355.7 308.4,353.5 C 322.8,350.9 336.4,343 344.6,330.6 C 351.9,319.6 355.8,305.9 353.4,292.7 C 350.6,264.8 322.3,242.1 294.3,246.5 z" />
      <path
         style="opacity:1;fill:#fdfdfd;fill-opacity:0.55288463;stroke:#fdfdfd;stroke-width:0.09375"
         id="path18"
         d="M 294.3,246.5 C 322.3,242.1 350.6,264.8 353.4,292.7 C 355.8,305.9 351.9,319.6 344.6,330.6 C 336.4,343 322.8,350.9 308.4,353.5 C 294.3,355.7 279.3,351.7 268.2,342.8 C 253.7,332.6 246.3,314.4 247,297 C 247.8,271.6 269,248.9 294.3,246.5 M 291.9,263 L 292.1,263.9 C 279.4,266.1 267.7,276.5 264.9,289.1 L 264.1,289 C 262.9,297 261.6,307.5 265.9,314 C 268.2,322.4 275.4,329.3 283,333.1 C 285.9,335.5 290.9,336.8 295,337 L 295,338 C 297.8,338 303.3,338 306,338 L 306,337 C 321.6,335.6 335.5,321.5 337,306 L 338,306 C 338,303.2 338,297.7 338,295 L 337,295 C 336.8,288.5 333.3,282.5 329.9,277.1 L 329.2,277.1 C 327.6,274.7 325.3,272.5 322.9,270.8 C 323.1,269.4 321.1,269.3 320.3,268.6 C 316.3,266.8 312.4,264.2 307.9,263.9 L 308.1,263 C 302.7,262.9 297.3,262.9 291.9,263 z" />
      <path
         id="path20"
         d="M 291.9,263 C 297.3,262.9 302.7,262.9 308.1,263 L 307.9,263.9 C 307.4,264.1 306.3,264.6 305.8,264.8 C 302.2,264.9 298.7,265.2 295.2,264.7 C 294.2,264.4 293.1,264.1 292.1,263.9 L 291.9,263 z"
         style="opacity:1;fill:#cbcaca;stroke:#cbcaca;stroke-width:0.09375" />
      <path
         id="path22"
         d="M 264.9,289.1 C 267.7,276.5 279.4,266.1 292.1,263.9 C 293.1,264.1 294.2,264.4 295.2,264.7 C 281.7,267.1 270,277 266,290.2 C 265.7,289.9 265.2,289.4 264.9,289.1 z"
         style="opacity:1;fill:#b7b6b6;stroke:#b7b6b6;stroke-width:0.09375" />
      <path
         id="path24"
         d="M 305.8,264.8 C 306.3,264.6 307.4,264.1 307.9,263.9 C 312.4,264.2 316.3,266.8 320.3,268.6 C 321.1,269.3 323.1,269.4 322.9,270.8 C 322.7,271.1 322.2,271.6 322,271.8 C 316.9,268.8 311.7,266 305.8,264.8 z"
         style="opacity:1;fill:#bab9b9;stroke:#bab9b9;stroke-width:0.09375" />
      <path
         id="path26"
         d="M 266,290.2 C 270,277 281.7,267.1 295.2,264.7 C 298.7,265.2 302.2,264.9 305.8,264.8 C 311.7,266 316.9,268.8 322,271.8 C 324.2,273.7 326.3,275.7 328.1,278 C 339.6,292 338.2,314.4 324.3,326.3 C 314,336.7 297.1,338.7 284.1,332.2 C 275.9,328.3 270.6,320.9 266.8,312.9 C 264.3,305.6 264.8,297.7 266,290.2 M 294.3,267.5 C 280.9,269.5 269.6,281 267.5,294.3 C 264.8,306.8 270.8,319.9 281,327 C 289.8,333.4 301.9,334.7 312,331 C 322.2,326.6 330.5,317.4 332.4,306.3 C 337.8,284.7 316,262.6 294.3,267.5 z"
         style="opacity:1;fill:#f4f5f7;stroke:#f4f5f7;stroke-width:0.09375" />
      <path
         id="path28"
         d="M 294.3,267.5 C 316,262.6 337.8,284.7 332.4,306.3 C 330.5,317.4 322.2,326.6 312,331 C 301.9,334.7 289.8,333.4 281,327 C 270.8,319.9 264.8,306.8 267.5,294.3 C 269.6,281 280.9,269.5 294.3,267.5 M 272,294 L 271,294 C 271,296.8 271,302.2 271,305 L 272,305 C 274.2,316.5 283.8,325.7 295.3,327.8 L 295,328.8 C 297.5,328.8 302.5,328.8 305,328.8 L 304.7,327.8 C 316.2,325.8 325.8,316.4 328,305 L 329,305 C 329,302.2 329,296.8 329,294 L 328,294 C 326.2,285.3 320.3,277.4 312,274 C 296.3,265.7 274.9,276.6 272,294 z"
         style="opacity:0.95999995;fill:#3966a1;stroke:#3966a1;stroke-width:0.09375" />
      <path
         id="path30"
         d="M 322,271.8 C 322.2,271.6 322.7,271.1 322.9,270.8 C 325.3,272.5 327.6,274.7 329.2,277.1 C 328.9,277.3 328.4,277.8 328.1,278 C 326.3,275.7 324.2,273.7 322,271.8 z"
         style="opacity:1;fill:#a5a3a3;stroke:#a5a3a3;stroke-width:0.09375" />
      <path
         id="path32"
         d="M 599,273.9 L 600,274.1 L 600,284.5 C 598.2,281.3 599.2,277.4 599,273.9 z"
         style="opacity:0.51999996;fill:#2d2f2c;stroke:#2d2f2c;stroke-width:0.09375" />
      <path
         id="path34"
         d="M 329.2,277.1 L 329.9,277.1 C 333.3,282.5 336.8,288.5 337,295 C 337,298.6 337,302.3 337,306 C 335.5,321.5 321.6,335.6 306,337 C 302.3,337 298.7,337 295,337 C 290.9,336.8 285.9,335.5 283,333.1 C 283.3,332.9 283.8,332.4 284.1,332.2 C 297.1,338.7 314,336.7 324.3,326.3 C 338.2,314.4 339.6,292 328.1,278 C 328.4,277.8 328.9,277.3 329.2,277.1 z"
         style="opacity:1;fill:#bdbbbb;stroke:#bdbbbb;stroke-width:0.09375" />
      <path
         id="path36"
         d="M 0,282 L 1,282 C 1.1,285.5 0.7,289 0,292.4 L 0,282 z"
         style="opacity:0.52999998;fill:#2e2f2d;stroke:#2e2f2d;stroke-width:0.09375" />
      <path
         id="path38"
         d="M 264.1,289 L 264.9,289.1 C 265.2,289.4 265.7,289.9 266,290.2 C 264.8,297.7 264.3,305.6 266.8,312.9 C 266.6,313.2 266.1,313.7 265.9,314 C 261.6,307.5 262.9,297 264.1,289 z"
         style="opacity:1;fill:#c6c5c5;stroke:#c6c5c5;stroke-width:0.09375" />
      <path
         id="path40"
         d="M 232,292 L 233,292 C 233,297.3 233,302.7 233,308 L 232,308 C 231.9,302.7 231.9,297.3 232,292 z"
         style="opacity:1;fill:#aaacaa;stroke:#aaacaa;stroke-width:0.09375" />
      <path
         id="path42"
         d="M 271,294 L 272,294 C 272,297.7 272,301.3 272,305 L 271,305 C 271,302.2 271,296.8 271,294 z"
         style="opacity:0.58999999;fill:#1f3c61;stroke:#1f3c61;stroke-width:0.09375" />
      <path
         id="path44"
         d="M 328,294 L 329,294 C 329,296.8 329,302.2 329,305 L 328,305 C 328,301.3 328,297.6 328,294 z"
         style="opacity:0.58999999;fill:#1f3c61;stroke:#1f3c61;stroke-width:0.09375" />
      <path
         id="path46"
         d="M 370,294 L 371,294 C 369.8,297.1 373.1,304.5 370,306 C 370,302 370,298 370,294 z"
         style="opacity:1;fill:#c4c5c3;stroke:#c4c5c3;stroke-width:0.09375" />
      <path
         id="path48"
         d="M 337,295 L 338,295 C 338,297.7 338,303.2 338,306 L 337,306 C 337,302.3 337,298.6 337,295 z"
         style="opacity:1;fill:#dbdada;stroke:#dbdada;stroke-width:0.09375" />
      <path
         id="path50"
         d="M 11.4,309.7 C 12.3,312.7 12,315.9 12,319 C 8.8,318.8 11.7,312.2 11.4,309.7 z"
         style="opacity:1;fill:#b6b7b5;stroke:#b6b7b5;stroke-width:0.09375" />
      <path
         id="path52"
         d="M 588,319 C 587.9,315.9 588.3,312.8 588.7,309.7 C 588,312.2 590.6,318 588,319 z"
         style="opacity:1;fill:#b6b7b5;stroke:#b6b7b5;stroke-width:0.09375" />
      <path
         id="path54"
         d="M 265.9,314 C 266.1,313.7 266.6,313.2 266.8,312.9 C 270.6,320.9 275.9,328.3 284.1,332.2 C 283.8,332.4 283.3,332.9 283,333.1 C 275.4,329.3 268.2,322.4 265.9,314 z"
         style="opacity:1;fill:#b2b1b1;stroke:#b2b1b1;stroke-width:0.09375" />
      <path
         id="path56"
         d="M 598.9,327.1 C 598.9,323.6 599.3,320 600,316.6 L 600,326.9 L 598.9,327.1 z"
         style="opacity:0.48999999;fill:#2b2c2a;stroke:#2b2c2a;stroke-width:0.09375" />
      <path
         id="path58"
         d="M 295.3,327.8 C 298.4,328.1 301.5,327.9 304.7,327.8 L 305,328.8 C 302.5,328.8 297.5,328.8 295,328.8 L 295.3,327.8 z"
         style="opacity:0.83999999;fill:#2b5489;stroke:#2b5489;stroke-width:0.09375" />
      <path
         id="path60"
         d="M 598.3,336.1 C 597.1,333.7 597.2,331.3 598.7,328.9 C 599.8,331.3 599.7,333.7 598.3,336.1 z"
         style="opacity:0.48999999;fill:#2a2b2a;stroke:#2a2b2a;stroke-width:0.09375" />
      <path
         id="path62"
         d="M 295,337 C 298.7,337 302.3,337 306,337 L 306,338 C 303.3,338 297.8,338 295,338 L 295,337 z"
         style="opacity:1;fill:#dbdada;stroke:#dbdada;stroke-width:0.09375" />
      <path
         id="path64"
         d="M 291,368 C 297.7,368 304.3,368 311,368 L 311,369 C 310.5,369 309.5,369 309,369 C 304,369 299,368.9 294,369 C 292.3,369.4 291.3,369.1 291,368 z"
         style="opacity:1;fill:#939592;stroke:#939592;stroke-width:0.09375" />
      <path
         id="path66"
         d="M 294,369 C 299,368.9 304,369 309,369 L 309,370 C 305.2,370 297.8,370 294,370 L 294,369 z"
         style="opacity:1;fill:#dededd;stroke:#dededd;stroke-width:0.09375" />
      <path
         id="path68"
         d="M 310.7,586.6 C 313.7,585.7 316.9,585.9 320,586 C 319.8,589.2 313.2,586.3 310.7,586.6 z"
         style="opacity:1;fill:#b7b8b6;stroke:#b7b8b6;stroke-width:0.09375" />
      <path
         id="path70"
         d="M 274,599 C 277.5,598.9 281,599.2 284.4,600 L 274.1,600 L 274,599 z"
         style="opacity:0.51999996;fill:#2d2f2c;stroke:#2d2f2c;stroke-width:0.09375" />
      <path
         id="path72"
         d="M 316.5,600 C 319.7,598.2 323.5,599.2 327,599 L 327,600 L 316.5,600 z"
         style="opacity:0.48999999;fill:#2b2c2a;stroke:#2b2c2a;stroke-width:0.09375" />
    </g>
  </g>
  <g
     inkscape:groupmode="layer"
     id="layer2"
     inkscape:label="asd"
     transform="translate(-253.48249,-332.47855)"
     style="display:inline" />
  <g
     inkscape:label="Capa 1"
     inkscape:groupmode="layer"
     id="layer1"
     transform="translate(-253.48249,-332.47855)"
     style="display:inline">
    <path
       style="fill:url(#linearGradient3320);fill-opacity:1;fill-rule:evenodd;stroke:none;stroke-width:1px;stroke-linecap:butt;stroke-linejoin:miter;stroke-opacity:1"
       d="M 13.827318,387.36274 L 18.081877,11.190054 L 13.827318,387.36274 z"
       id="path3274"
       transform="translate(253.48249,332.47855)"
       sodipodi:nodetypes="ccc" />
  </g>
</svg>
